<?xml version="1.0" encoding="utf-8"?>
<!-- Generator: Adobe Illustrator 23.0.3, SVG Export Plug-In . SVG Version: 6.00 Build 0)  -->
<svg version="1.1" id="Layer_1" xmlns="http://www.w3.org/2000/svg" xmlns:xlink="http://www.w3.org/1999/xlink" x="0px" y="0px"
	 viewBox="0 0 291.27 291.27" style="enable-background:new 0 0 291.27 291.27;" xml:space="preserve">
<style type="text/css">
	.st0{fill-rule:evenodd;clip-rule:evenodd;}
	.st1{fill:#FFFFFF;}
</style>
<path class="st0" d="M0,0h291.27v291.27H0V0z"/>
<path class="st1" d="M94.77,208.08c14.21,0,26.91-4.51,38.12-13.53c1.66-1.66,2.49-3.58,2.49-5.76c0-2.28-0.65-4.12-1.95-5.52
	s-2.93-2.1-4.9-2.1c-1.66,0-3.37,0.62-5.13,1.87c-9.13,6.84-18.67,10.27-28.63,10.27c-8.09,0-15.54-2.12-22.32-6.38
	c-6.79-4.25-12.19-10.01-16.18-17.27c-3.99-7.26-5.99-15.25-5.99-23.96c0-8.61,2-16.57,5.99-23.88s9.39-13.1,16.18-17.35
	s14.23-6.38,22.32-6.38c6.43,0,11.67,0.8,15.71,2.41s8.19,4.23,12.45,7.86c1.66,1.35,3.48,2.03,5.44,2.03
	c1.97,0,3.71-0.67,5.21-2.03c1.5-1.35,2.26-3.06,2.26-5.13c0-1.35-0.21-2.51-0.62-3.5c-0.42-0.98-1.25-1.95-2.49-2.88
	c-5.91-4.77-11.75-8.19-17.5-10.27c-5.76-2.07-12.58-3.11-20.46-3.11c-11.1,0-21.24,2.78-30.41,8.32
	c-9.18,5.55-16.41,13.07-21.7,22.56s-7.94,19.94-7.94,31.35c0,11.51,2.65,22.04,7.94,31.58c5.29,9.55,12.53,17.06,21.7,22.56
	C73.53,205.33,83.66,208.08,94.77,208.08L94.77,208.08z"/>
<path class="st1" d="M215.64,208.08c14.21,0,26.91-4.51,38.12-13.53c1.66-1.66,2.49-3.58,2.49-5.76c0-2.28-0.65-4.12-1.95-5.52
	s-2.93-2.1-4.9-2.1c-1.66,0-3.37,0.62-5.13,1.87c-9.13,6.84-18.67,10.27-28.63,10.27c-8.09,0-15.54-2.12-22.32-6.38
	c-6.79-4.25-12.19-10.01-16.18-17.27c-3.99-7.26-5.99-15.25-5.99-23.96c0-8.61,2-16.57,5.99-23.88s9.39-13.1,16.18-17.35
	s14.23-6.38,22.32-6.38c6.43,0,11.67,0.8,15.71,2.41c4.04,1.61,8.19,4.23,12.45,7.86c1.66,1.35,3.48,2.03,5.44,2.03
	s3.71-0.67,5.21-2.03c1.5-1.35,2.26-3.06,2.26-5.13c0-1.35-0.21-2.51-0.62-3.5c-0.42-0.98-1.25-1.95-2.49-2.88
	c-5.91-4.77-11.75-8.19-17.5-10.27c-5.76-2.07-12.58-3.11-20.46-3.11c-11.1,0-21.24,2.78-30.41,8.32
	c-9.18,5.55-16.41,13.07-21.7,22.56s-7.94,19.94-7.94,31.35c0,11.51,2.65,22.04,7.94,31.58c5.29,9.55,12.53,17.06,21.7,22.56
	C194.41,205.33,204.54,208.08,215.64,208.08L215.64,208.08z"/>
</svg>
